# AST/ASF file generated using VICON BodyLanguage
# -----------------------------------------------
:version 1.10
:name VICON
:units
  mass 1.0
  length 0.45
  angle deg
:documentation
   .ast/.asf automatically generated from VICON data using
   VICON BodyBuilder and BodyLanguage model FoxedUp or BRILLIANT.MOD
:root
   order TX TY TZ RX RY RZ
   axis XYZ
   position 0 0 0  
   orientation 0 0 0 
:bonedata
  begin
     id 1 
     name lhipjoint
     direction 0.560651 -0.75055 0.34978 
     length 2.44936 
     axis 0 0 0  XYZ
  end
  begin
     id 2 
     name lfemur
     direction 0.34202 -0.939693 0  
     length 7.42139  
     axis 0 0 20  XYZ
    dof rx ry rz
    limits (-160.0 20.0)
           (-70.0 70.0)
           (-60.0 70.0)
  end
  begin
     id 3 
     name ltibia
     direction 0.34202 -0.939693 0   
     length 7.75674   
     axis 0 0 20   XYZ
    dof rx
    limits (-10.0 170.0)
  end
  begin
     id 4 
     name lfoot
     direction 0.0925879 -0.254383 0.962661   
     length 2.38688   
     axis -90 7.62852e-016 20   XYZ
    dof rx rz
    limits (-45.0 90.0)
           (-70.0 20.0)
  end
  begin
     id 5 
     name ltoes
     direction 1.53567e-011 -4.21973e-011 1   
     length 1.19228   
     axis -90 7.62852e-016 20   XYZ
    dof rx
    limits (-90.0 20.0)
  end
  begin
     id 6 
     name rhipjoint
     direction -0.540087 -0.762838 0.355506   
     length 2.4099  
     axis 0 0 0  XYZ 
  end
  begin
     id 7 
     name rfemur
     direction -0.34202 -0.939693 0   
     length 7.70794   
     axis 0 0 -20   XYZ
    dof rx ry rz
    limits (-160.0 20.0)
           (-70.0 70.0)
           (-70.0 60.0)
  end
  begin
     id 8 
     name rtibia
     direction -0.34202 -0.939693 0   
     length 7.66106   
     axis 0 0 -20   XYZ
    dof rx
    limits (-10.0 170.0)
 end
 begin
     id 9 
     name rfoot
     direction -0.0830975 -0.228308 0.970036   
     length 2.4989  
     axis -90 -7.62852e-016 -20   XYZ
    dof rx rz
    limits (-45.0 90.0)
           (-20.0 70.0)
  end
  begin
     id 10 
     name rtoes
     direction -1.53517e-011 -4.21842e-011 1   
     length 1.2498   
     axis -90 -7.62852e-016 -20   XYZ
    dof rx
    limits (-90.0 20.0)
  end
  begin
     id 11 
     name lowerback
     direction 0.0266356 0.99402 -0.105896   
     length 2.1545   
     axis 0 0 0   XYZ
    dof rx ry rz
    limits (-20.0 45.0)
           (-30.0 30.0)
           (-30.0 30.0)
  end
  begin
     id 12 
     name upperback
     direction 0.0130547 0.999192 0.0380027   
     length 2.1434   
     axis 0 0 0   XYZ
    dof rx ry rz
    limits (-20.0 45.0)
           (-30.0 30.0)
           (-30.0 30.0)
  end
  begin
     id 13 
     name thorax
     direction 0.000590299 0.996288 0.0860764   
     length 2.19049   
     axis 0 0 0   XYZ
    dof rx ry rz
    limits (-20.0 45.0)
           (-30.0 30.0)
           (-30.0 30.0)
  end
  begin
     id 14 
     name lowerneck
     direction -0.0432125 0.978219 0.203028   
     length 1.62441   
     axis 0 0 0   XYZ
    dof rx ry rz
    limits (-20.0 45.0)
           (-30.0 30.0)
           (-30.0 30.0)
  end
  begin
     id 15 
     name upperneck
     direction -0.0192309 0.991699 -0.127138   
     length 1.66666   
     axis 0 0 0   XYZ
    dof rx ry rz
    limits (-20.0 45.0)
           (-30.0 30.0)
           (-30.0 30.0)
  end
  begin
     id 16
     name head
     direction -0.00434499 0.997882 -0.0649107  
     length 1.67142  
     axis 0 0 0   XYZ
    dof rx ry rz
    limits (-20.0 45.0)
           (-30.0 30.0)
           (-30.0 30.0)
  end
  begin
     id 17 
     name lclavicle
     direction 0.970351 0.240904 -0.0196058  
     length 4.04862  
     axis 0 0 0   XYZ
    dof ry rz
    limits (-20.0 10.0)
           (0.0 20.0)
  end
  begin
     id 18 
     name lhumerus
     direction 1 -4.4896e-011 -1.40911e-018   
     length 5.58345   
     axis 180 -30 -90   XYZ
    dof rx ry rz
    limits (-60.0 90.0)
           (-90.0 90.0)
           (-90.0 90.0)
  end
  begin
     id 19
     name lradius
     direction 1 -4.48968e-011 5.88912e-028   
     length 3.71087   
     axis 180 -30 -90   XYZ
    dof rx
    limits (-10.0 170.0)
  end
  begin
     id 20
     name lwrist
     direction 1 -4.48955e-011 -8.83775e-028   
     length 1.85544   
     axis 5.52448e-016 90 90   XYZ
    dof ry
    limits (-180.0 0.0)
 end
  begin
     id 21 
     name lhand
     direction 1 -4.49035e-011 -1.76755e-027   
     length 0.562322   
     axis 1.12785e-015 90 90   XYZ
    dof rx rz
    limits (-90.0 90.0)
           (-45.0 45.0)
  end
  begin
     id 22 
     name lfingers
     direction 1 -4.48824e-011 -3.5351e-027   
     length 0.453359   
     axis 2.2557e-015 90 90   XYZ
    dof rx
    limits (0.0 90.0)
  end
  begin
     id 23
     name lthumb
     direction 0.707107 -6.34888e-011 0.707107   
     length 0.650935   
     axis -90 45 2.85299e-015   XYZ
    dof rx rz
    limits (-45.0 45.0)
           (-45.0 45.0)
  end
  begin
     id 24 
     name rclavicle
     direction -0.96165 0.268562 -0.0557131   
     length 4.05446  
     axis 0 0 0   XYZ 
    dof ry rz
    limits (-10.0 20.0)
           (-20.0 0.0)
  end
  begin
     id 25 
     name rhumerus
     direction -1 -4.48957e-011 -3.36329e-027  
     length 5.20357   
     axis 180 30 90   XYZ
    dof rx ry rz
    limits (-90.0 60.0)
           (-90.0 90.0)
           (-90.0 90.0)
  end
  begin
     id 26 
     name rradius
     direction -1 -4.48974e-011 4.51441e-027   
     length 3.64937   
     axis 180 30 90   XYZ
    dof rx
    limits (-10.0 170.0)
  end
  begin
     id 27 
     name rwrist
     direction -1 -4.4896e-011 -8.83775e-028   
     length 1.82468   
     axis 5.52448e-016 -90 -90   XYZ
    dof ry
    limits (-180.0 0.0)
  end
  begin
     id 28
     name rhand
     direction -1 -4.48996e-011 -1.76755e-027   
     length 0.617996   
     axis 1.12785e-015 -90 -90   XYZ
    dof rx rz
    limits (-90.0 90.0)
           (-45.0 45.0)
  end
  begin
     id 29
     name rfingers
     direction -1 -4.48957e-011 -3.5351e-027   
     length 0.498244   
     axis 2.2557e-015 -90 -90   XYZ
    dof rx
    limits (0.0 90.0)
  end
  begin
     id 30
     name rthumb
     direction -0.707107 -6.34931e-011 0.707107   
     length 0.715382   
     axis -90 -45 -2.85299e-015   XYZ
    dof rx rz
    limits (-45.0 45.0)
           (-45.0 45.0)
  end
:hierarchy
  begin
    root lhipjoint rhipjoint lowerback
    lhipjoint lfemur
    lfemur ltibia
    ltibia lfoot
    lfoot ltoes
    rhipjoint rfemur
    rfemur rtibia
    rtibia rfoot
    rfoot rtoes
    lowerback upperback
    upperback thorax
    thorax lowerneck lclavicle rclavicle
    lowerneck upperneck
    upperneck head
    lclavicle lhumerus
    lhumerus lradius
    lradius lwrist
    lwrist lhand lthumb
    lhand lfingers
    rclavicle rhumerus
    rhumerus rradius
    rradius rwrist
    rwrist rhand rthumb
    rhand rfingers
  end

#!OML:ASF H:\ManfredETheater\Project 1\Capture day 2\Session 1\Male1.ASF
:FULLY-SPECIFIED
:DEGREES
364
root -15.8052 16.7288 -28.0315 199.292 -25.3938 171.806
lowerback 13.7353 -0.711815 -0.977057
upperback -1.04685 -1.11841 0.204996
thorax -8.82932 -0.497958 1.00983
lowerneck -23.496 -1.33958 -1.98012
upperneck 6.8511 -1.1617 -2.26031
head 5.79744 -0.926856 -0.562608
rclavicle 3.97569e-016 -1.19271e-014
rhumerus -40.8177 2.04225 -87.4583
rradius 60.2021
rwrist -5.82377
rhand -31.7148 -8.70239
rfingers 7.12502
rthumb -4.97337 -398.624
lclavicle 3.97569e-016 -1.19271e-014
lhumerus -38.5524 -19.1421 97.7227
lradius 87.5424
lwrist 6.42045
lhand -19.0826 -8.42549
lfingers 7.12502
lthumb 7.22539 21.4312
rfemur -36.1784 -7.84129 2.63836
rtibia 79.6672
rfoot -12.5702 -11.9221
rtoes -16.0346
lfemur -11.5067 -12.2714 -22.1522
ltibia 33.241
lfoot -33.506 0.385703
ltoes -1.08312
365
root -15.8467 16.6756 -28.1046 199.569 -25.8229 171.631
lowerback 14.2638 -0.89854 -1.1919
upperback -0.880131 -1.41681 0.198601
thorax -8.93841 -0.634269 1.19727
lowerneck -23.8777 -1.27816 -1.92292
upperneck 6.59445 -1.1293 -2.16232
head 5.77098 -0.910267 -0.53891
rclavicle -1.94809e-014 3.18055e-015
rhumerus -41.1523 1.1712 -86.8597
rradius 59.0966
rwrist -6.483
rhand -31.9903 -9.00872
rfingers 7.12502
rthumb -5.23934 -398.924
lclavicle -1.94809e-014 3.18055e-015
lhumerus -36.7479 -19.171 96.9688
lradius 88.2579
lwrist 6.01793
lhand -19.007 -8.78729
lfingers 7.12502
lthumb 7.29839 21.0668
rfemur -38.2677 -8.94068 3.30449
rtibia 81.8295
rfoot -13.6031 -10.6288
rtoes -18.5825
lfemur -11.7282 -12.5239 -22.2028
ltibia 33.8625
lfoot -33.9983 0.342207
ltoes -1.33745
366
root -15.8868 16.6221 -28.1818 199.863 -26.262 171.521
lowerback 14.7711 -1.07998 -1.35465
upperback -0.712781 -1.69943 0.213962
thorax -9.0327 -0.765054 1.37817
lowerneck -24.2944 -1.21679 -1.86073
upperneck 6.3346 -1.10132 -2.06276
head 5.74811 -0.897096 -0.516295
rclavicle 3.69739e-014 1.19271e-014
rhumerus -41.5525 0.378864 -86.2593
rradius 58.0001
rwrist -7.27452
rhand -32.2849 -9.24791
rfingers 7.12502
rthumb -5.52382 -399.156
lclavicle 3.69739e-014 1.19271e-014
lhumerus -34.825 -19.117 96.1994
lradius 89.0773
lwrist 5.62777
lhand -19.0375 -9.11982
lfingers 7.12502
lthumb 7.26895 20.7353
rfemur -40.4266 -10.0757 4.19091
rtibia 83.7784
rfoot -14.6778 -9.47667
rtoes -21.2999
lfemur -11.9727 -12.738 -22.1553
ltibia 34.4603
lfoot -34.5198 0.241049
ltoes -1.49548
367
root -15.9257 16.5689 -28.2635 200.195 -26.6845 171.451
lowerback 15.246 -1.24912 -1.50623
upperback -0.552848 -1.96319 0.247572
thorax -9.11418 -0.886824 1.57054
lowerneck -24.7201 -1.15061 -1.79271
upperneck 6.05923 -1.07222 -1.96662
head 5.72091 -0.88485 -0.495548
rclavicle 5.40694e-014 1.35174e-014
rhumerus -42.0502 -0.30154 -85.6641
rradius 56.9662
rwrist -8.21977
rhand -32.6161 -9.37378
rfingers 7.12502
rthumb -5.84355 -399.273
lclavicle 5.40694e-014 1.35174e-014
lhumerus -32.809 -18.9659 95.4363
lradius 90.0234
lwrist 5.31794
lhand -19.1856 -9.38536
lfingers 7.12502
lthumb 7.12604 20.4747
rfemur -42.6719 -11.2073 5.2674
rtibia 85.5048
rfoot -15.7841 -8.39646
rtoes -23.9939
lfemur -12.2288 -12.8893 -22.0416
ltibia 34.9973
lfoot -35.06 0.0925692
ltoes -1.59383
368
root -15.9638 16.5166 -28.3506 200.587 -27.0695 171.389
lowerback 15.6806 -1.39639 -1.67876
upperback -0.40737 -2.20095 0.293546
thorax -9.18556 -0.994621 1.78384
lowerneck -25.1465 -1.08806 -1.73505
upperneck 5.76396 -1.0492 -1.87125
head 5.68676 -0.877308 -0.474012
rclavicle -2.78299e-014 -6.36111e-015
rhumerus -42.6818 -0.855893 -85.0768
rradius 56.0618
rwrist -9.28583
rhand -33.0102 -9.37094
rfingers 7.12502
rthumb -6.22402 -399.26
lclavicle -2.78299e-014 -6.36111e-015
lhumerus -30.7157 -18.7256 94.706
lradius 91.1133
lwrist 5.16152
lhand -19.4326 -9.52987
lfingers 7.12502
lthumb 6.88753 20.3381
rfemur -45.0099 -12.2968 6.492
rtibia 86.9984
rfoot -16.9219 -7.34094
rtoes -26.4489
lfemur -12.486 -12.9678 -21.8971
ltibia 35.4374
lfoot -35.6018 -0.107376
ltoes -1.63098
369
root -16.0017 16.4659 -28.4441 201.058 -27.3972 171.31
lowerback 16.0615 -1.51887 -1.89868
upperback -0.287959 -2.41384 0.343881
thorax -9.2514 -1.08755 2.02374
lowerneck -25.5478 -1.02768 -1.68337
upperneck 5.44869 -1.03085 -1.77935
head 5.64186 -0.873421 -0.452866
rclavicle -4.69132e-014 -1.43125e-014
rhumerus -43.4935 -1.26282 -84.5135
rradius 55.3623
rwrist -10.4318
rhand -33.4403 -9.24112
rfingers 7.12502
rthumb -6.63925 -399.117
lclavicle -4.69132e-014 -1.43125e-014
lhumerus -28.5901 -18.3883 94.0307
lradius 92.3701
lwrist 5.20257
lhand -19.7426 -9.52215
lfingers 7.12502
lthumb 6.58833 20.3554
rfemur -47.4382 -13.3056 7.82047
rtibia 88.2492
rfoot -18.0688 -6.27672
rtoes -28.7094
lfemur -12.7335 -12.9636 -21.7549
ltibia 35.749
lfoot -36.1249 -0.360985
ltoes -1.61758
370
root -16.04 16.4176 -28.545 201.622 -27.6528 171.185
lowerback 16.3856 -1.60856 -2.18592
upperback -0.195044 -2.59545 0.393588
thorax -9.31015 -1.1617 2.29384
lowerneck -25.932 -0.979123 -1.65553
upperneck 5.11525 -1.02441 -1.69021
head 5.58809 -0.877343 -0.430045
rclavicle -2.26615e-014 -1.82882e-014
rhumerus -44.5159 -1.52748 -83.9761
rradius 54.9582
rwrist -11.5516
rhand -33.9051 -9.00118
rfingers 7.12502
rthumb -7.08799 -398.862
lclavicle -2.26615e-014 -1.82882e-014
lhumerus -26.4427 -17.9707 93.4343
lradius 93.8008
lwrist 5.48006
lhand -20.0767 -9.37691
lfingers 7.12502
lthumb 6.26575 20.5104
rfemur -49.9441 -14.1989 9.20409
rtibia 89.249
rfoot -19.2097 -5.16854
rtoes -30.7155
lfemur -12.9592 -12.8628 -21.646
ltibia 35.9057
lfoot -36.6123 -0.673789
ltoes -1.57284
371
root -16.0792 16.372 -28.6535 202.287 -27.8367 171.003
lowerback 16.6546 -1.66931 -2.53573
upperback -0.143918 -2.75046 0.434617
thorax -9.38023 -1.21878 2.58368
lowerneck -26.2716 -0.944126 -1.65084
upperneck 4.76951 -1.03075 -1.60376
head 5.52355 -0.888617 -0.40552
rclavicle -4.01545e-014 3.18055e-015
rhumerus -45.7938 -1.65572 -83.4801
rradius 54.9085
rwrist -12.512
rhand -34.3865 -8.60018
rfingers 7.12502
rthumb -7.55266 -398.445
lclavicle -4.01545e-014 3.18055e-015
lhumerus -24.3288 -17.479 92.9367
lradius 95.4175
lwrist 5.98415
lhand -20.4018 -9.1415
lfingers 7.12502
lthumb 5.95194 20.7549
rfemur -52.5066 -14.9643 10.6053
rtibia 89.9949
rfoot -20.3028 -4.00532
rtoes -32.5035
lfemur -13.1558 -12.6942 -21.5895
ltibia 35.8905
lfoot -37.0381 -1.02079
ltoes -1.50164
372
root -16.1207 16.3297 -28.7703 203.034 -27.9614 170.779
lowerback 16.8623 -1.70974 -2.91167
upperback -0.126748 -2.88276 0.470406
thorax -9.45125 -1.26247 2.87631
lowerneck -26.6073 -0.925376 -1.68582
upperneck 4.45073 -1.04733 -1.50781
head 5.45312 -0.905446 -0.37652
rclavicle -5.96354e-015 2.22639e-014
rhumerus -47.3325 -1.66657 -83.0367
rradius 55.2698
rwrist -13.1776
rhand -34.8588 -8.07321
rfingers 7.12502
rthumb -8.0085 -397.901
lclavicle -5.96354e-015 2.22639e-014
lhumerus -22.2714 -16.9175 92.546
lradius 97.22
lwrist 6.68003
lhand -20.6851 -8.85157
lfingers 7.12502
lthumb 5.67837 21.0524
rfemur -55.0779 -15.5888 12.0132
rtibia 90.4849
rfoot -21.3442 -2.81838
rtoes -34.1544
lfemur -13.3045 -12.4726 -21.5723
ltibia 35.6969
lfoot -37.3986 -1.4125
ltoes -1.42388
373
root -16.1653 16.2912 -28.8956 203.841 -28.043 170.535
lowerback 17.0181 -1.73817 -3.26718
upperback -0.143735 -2.99385 0.502894
thorax -9.53144 -1.29523 3.14787
lowerneck -26.894 -0.920129 -1.74313
upperneck 4.11372 -1.07371 -1.42836
head 5.38297 -0.928965 -0.346336
rclavicle 1.19271e-015 1.59028e-015
rhumerus -49.1272 -1.59434 -82.6461
rradius 56.0652
rwrist -13.4721
rhand -35.2393 -7.43628
rfingers 7.12502
rthumb -8.37572 -397.25
lclavicle 1.19271e-015 1.59028e-015
lhumerus -20.309 -16.3044 92.2721
lradius 99.2055
lwrist 7.51104
lhand -20.9137 -8.54552
lfingers 7.12502
lthumb 5.45766 21.3642
rfemur -57.6089 -16.0693 13.4181
rtibia 90.7263
rfoot -22.3025 -1.64263
rtoes -35.7711
lfemur -13.3958 -12.2222 -21.5776
ltibia 35.3261
lfoot -37.6783 -1.82477
ltoes -1.38926
374
root -16.2138 16.2563 -29.0294 204.676 -28.1061 170.304
lowerback 17.1264 -1.77274 -3.55203
upperback -0.193443 -3.09677 0.537508
thorax -9.62357 -1.32537 3.37885
lowerneck -27.1324 -0.915691 -1.81582
upperneck 3.77949 -1.09382 -1.36821
head 5.3068 -0.950931 -0.318949
rclavicle -5.56597e-015 -1.59028e-015
rhumerus -51.1558 -1.45795 -82.318
rradius 57.2894
rwrist -13.4192
rhand -35.507 -6.68524
rfingers 7.12502
rthumb -8.63409 -396.489
lclavicle -5.56597e-015 -1.59028e-015
lhumerus -18.5046 -15.6412 92.1067
lradius 101.375
lwrist 8.39819
lhand -21.095 -8.249
lfingers 7.12502
lthumb 5.28261 21.6652
rfemur -60.0471 -16.4218 14.8268
rtibia 90.7385
rfoot -23.1489 -0.5419
rtoes -37.3991
lfemur -13.409 -11.9783 -21.574
ltibia 34.7839
lfoot -37.8752 -2.25645
ltoes -1.35221
375
root -16.2663 16.2253 -29.1726 205.491 -28.1664 170.129
lowerback 17.195 -1.82271 -3.72674
upperback -0.263475 -3.19472 0.585066
thorax -9.72008 -1.35669 3.55925
lowerneck -27.3222 -0.900038 -1.89214
upperneck 3.44846 -1.09438 -1.33789
head 5.22475 -0.96539 -0.298089
rclavicle 5.1684e-014 3.02153e-014
rhumerus -53.3733 -1.27203 -82.0604
rradius 58.9056
rwrist -13.074
rhand -35.65 -5.85531
rfingers 7.12502
rthumb -8.77206 -395.653
lclavicle 5.1684e-014 3.02153e-014
lhumerus -16.9024 -14.9439 92.0301
lradius 103.715
lwrist 9.27709
lhand -21.2363 -7.98345
lfingers 7.12502
lthumb 5.14617 21.9341
rfemur -62.3225 -16.6418 16.2522
rtibia 90.549
rfoot -23.8613 0.411259
rtoes -38.988
lfemur -13.3125 -11.7618 -21.5234
ltibia 34.077
lfoot -37.9851 -2.68416
ltoes -1.32922
376
root -16.3241 16.198 -29.3255 206.246 -28.2405 170.031
lowerback 17.2299 -1.90053 -3.75511
upperback -0.342431 -3.29639 0.649664
thorax -9.81317 -1.39588 3.67499
lowerneck -27.4597 -0.85917 -1.96011
upperneck 3.1195 -1.05961 -1.35155
head 5.13594 -0.965423 -0.28837
rclavicle -8.0309e-014 0
rhumerus -55.7141 -1.04249 -81.877
rradius 60.8396
rwrist -12.6033
rhand -35.6601 -4.93335
rfingers 7.12502
rthumb -8.78182 -394.731
lclavicle -8.0309e-014 0
lhumerus -15.5425 -14.2342 92.0115
lradius 106.206
lwrist 10.0982
lhand -21.3636 -7.73638
lfingers 7.12502
lthumb 5.02323 22.1841
rfemur -64.372 -16.7572 17.6881
rtibia 90.1994
rfoot -24.4183 1.15771
rtoes -40.4657
lfemur -13.075 -11.6054 -21.4109
ltibia 33.2149
lfoot -38.0001 -3.07655
ltoes -1.35752
377
root -16.3878 16.1742 -29.489 206.915 -28.3339 170.017
lowerback 17.2241 -2.01436 -3.63623
upperback -0.415913 -3.41176 0.735142
thorax -9.88254 -1.44915 3.73116
lowerneck -27.529 -0.775163 -2.00185
upperneck 2.78472 -0.970989 -1.42411
head 5.03569 -0.942578 -0.29517
rclavicle -7.15625e-015 -1.11319e-014
rhumerus -58.1095 -0.765659 -81.7703
rradius 63.0123
rwrist -12.1896
rhand -35.5381 -3.93705
rfingers 7.12502
rthumb -8.66409 -393.739
lclavicle -7.15625e-015 -1.11319e-014
lhumerus -14.4612 -13.5333 92.0106
lradius 108.818
lwrist 10.8541
lhand -21.4995 -7.51853
lfingers 7.12502
lthumb 4.89204 22.405
rfemur -66.1417 -16.7948 19.1173
rtibia 89.7413
rfoot -24.7939 1.65509
rtoes -41.7446
lfemur -12.6614 -11.5135 -21.2399
ltibia 32.2004
lfoot -37.9006 -3.39006
ltoes -1.54366
378
root -16.4569 16.1531 -29.6628 207.481 -28.4372 170.086
lowerback 17.1863 -2.15946 -3.38564
upperback -0.477035 -3.53852 0.841322
thorax -9.92554 -1.51528 3.73591
lowerneck -27.5329 -0.648157 -2.02601
upperneck 2.44594 -0.826673 -1.55047
head 4.92533 -0.895421 -0.315385
rclavicle 1.66979e-014 1.03368e-014
rhumerus -60.4905 -0.447695 -81.7385
rradius 65.3246
rwrist -11.9713
rhand -35.3196 -2.87751
rfingers 7.12502
rthumb -8.45322 -392.688
lclavicle 1.66979e-014 1.03368e-014
lhumerus -13.6678 -12.8901 91.9823
lradius 111.5
lwrist 11.5935
lhand -21.6559 -7.3353
lfingers 7.12502
lthumb 4.74106 22.5917
rfemur -67.6144 -16.7632 20.5182
rtibia 89.2309
rfoot -24.9676 1.86212
rtoes -42.6808
lfemur -12.0542 -11.4768 -21.022
ltibia 31.0425
lfoot -37.6758 -3.61165
ltoes -1.89226
